<?xml version="1.0" encoding="UTF-8" standalone="no"?>
<svg
   xmlns:dc="http://purl.org/dc/elements/1.1/"
   xmlns:cc="http://creativecommons.org/ns#"
   xmlns:rdf="http://www.w3.org/1999/02/22-rdf-syntax-ns#"
   xmlns:svg="http://www.w3.org/2000/svg"
   xmlns="http://www.w3.org/2000/svg"
   viewBox="0 0 641.32416 178.27345"
   height="178.27345"
   width="641.32416"
   xml:space="preserve"
   version="1.1"
   id="svg3355"><metadata
     id="metadata3361"><rdf:RDF><cc:Work
         rdf:about=""><dc:format>image/svg+xml</dc:format><dc:type
           rdf:resource="http://purl.org/dc/dcmitype/StillImage" /><dc:title></dc:title></cc:Work></rdf:RDF></metadata><defs
     id="defs3359" /><g
     transform="matrix(1.25,0,0,-1.25,0.0916481,177.27659)"
     id="g3363"><ellipse
       cx="70.870361"
       cy="-70.511894"
       rx="70.94368"
       ry="71.30938"
       transform="scale(1,-1)"
       id="path4485"
       style="opacity:1;fill:#ffffff;fill-opacity:1;stroke:none;stroke-width:1.20000005;stroke-miterlimit:4;stroke-dasharray:none;stroke-opacity:1" /><path
       id="path4230"
       d="m 47.4352,11.3129 0.6429,1.5902 C 53.402,27.3969 59.6352,41.2539 63.3047,49.0926 62.998,54.2754 62.3703,58.998 61.7418,62.6875 47.4449,66.2195 37.3023,75.9852 37.3023,75.9852 l 4.07,6.005 c 0,0 13.8617,-11.1554 30.3691,-11.1554 16.507,0 30.3596,11.1515 30.3596,11.1515 l 4.075,-6.0035 c 0,0 -10.1584,-9.7828 -24.4748,-13.3043 -0.6133,-3.6308 -1.2364,-8.2551 -1.5477,-13.3293 3.6,-7.6703 9.7567,-21.3633 15.0781,-35.764 l 0.593,-1.634 c 22.9174,9.7289 38.9874,32.4383 38.9874,58.9008 0,35.325 -28.636,63.961 -63.9608,63.961 -35.3242,0 -63.96253,-28.636 -63.96253,-63.961 0,-27.0614 16.80433,-50.195 40.54653,-59.5391 z"
       style="fill:#0b0c0c;fill-opacity:1;fill-rule:nonzero;stroke:none" /><path
       d="m 190.688,111.196 2,0.127 0,9.94 -21.202,-0.124 -14.082,0.125 -0.008,-2.269 c 5.245,-0.175 6.459,-0.35 6.459,-5.022 l 0,-26.7609 c 0,-5.6426 -0.734,-6.4535 -6.459,-6.4535 l 0,-2.282 15.45,0.1234 20.053,-0.1227 c 0.712,3.2852 2.005,7.4915 2.977,10.1852 l -2.149,0.3816 c -2.579,-6.2742 -5.776,-7.3113 -12.284,-7.6082 l -3.566,0 c -6.423,0 -6.648,1.4024 -6.648,8.0215 0,0 0,8.911 0,9.5742 0.645,0 6.92,0 6.92,0 5.277,0 7.055,-0.3566 7.055,-5.7863 l 2.085,0 -0.149,4.1246 -0.136,2.9221 c 0,2.085 0.171,6.056 0.309,7.423 l -2.067,0 c -0.522,-4.345 -0.895,-5.501 -5.398,-5.501 0,0 -7.962,0 -8.619,0 0,0.67 0,15.422 0,16.091 0.65,0 8.864,0 8.864,0 6.924,0 9.648,-1.831 10.595,-7.109"
       style="fill:#ffffff;fill-opacity:1;fill-rule:nonzero;stroke:none"
       id="path3367" /><path
       d="m 198.346,104.349 c 2.601,-0.595 3.828,-1.908 3.828,-4.118 l 0,-17.4994 c 0,-1.7535 -0.811,-1.8222 -2.814,-1.8222 l -1.543,0 0,-2.4367 7.49,0.1394 7.361,-0.1394 -0.008,2.4367 -1.545,0 c -2.043,0 -2.945,0.0726 -2.945,1.8222 0,0 0,18.9524 0,19.3454 2.312,1.515 5.415,2.698 7.304,2.698 3.098,0 5.719,-1.229 5.719,-5.573 l 0,-16.4704 c 0,-1.7535 -0.811,-1.8222 -2.811,-1.8222 l -1.548,0 0,-2.4367 7.49,0.1394 7.361,-0.1394 -0.008,2.4367 -1.543,0 c -2.042,0 -2.947,0.0726 -2.947,1.8222 l 0,17.0368 c 0,6.5736 -3.377,9.6016 -7.947,9.6016 -4.031,0 -7.196,-2.115 -11.07,-4.625 0,0.967 0,3.925 0,3.925 0,0.823 -0.63,0.746 -0.873,0.643 -2.421,-1.052 -6.33,-2.433 -8.951,-3.209 l 0,-1.755"
       style="fill:#ffffff;fill-opacity:1;fill-rule:nonzero;stroke:none"
       id="path3369" /><path
       d="m 459.53,104.349 c 2.602,-0.595 3.828,-1.908 3.828,-4.118 l 0,-17.4994 c 0,-1.7535 -0.814,-1.8222 -2.814,-1.8222 l -1.543,0 0,-2.4367 7.49,0.1394 7.361,-0.1394 -0.007,2.4367 -1.546,0 c -2.042,0 -2.945,0.0726 -2.945,1.8222 0,0 0,18.9524 0,19.3454 2.309,1.515 5.416,2.698 7.304,2.698 3.099,0 5.72,-1.229 5.72,-5.573 l 0,-16.4704 c 0,-1.7535 -0.814,-1.8222 -2.812,-1.8222 l -1.547,0 0,-2.4367 7.489,0.1394 7.361,-0.1394 -0.008,2.4367 -1.543,0 c -2.045,0 -2.947,0.0726 -2.947,1.8222 l 0,17.0368 c 0,6.5736 -3.378,9.6016 -7.947,9.6016 -4.03,0 -7.195,-2.115 -11.07,-4.625 0,0.967 0,3.925 0,3.925 0,0.823 -0.633,0.746 -0.873,0.643 -2.42,-1.052 -6.33,-2.433 -8.951,-3.209 l 0,-1.755"
       style="fill:#ffffff;fill-opacity:1;fill-rule:nonzero;stroke:none"
       id="path3371" /><path
       d="m 340.984,104.349 c 2.602,-0.595 3.828,-1.908 3.828,-4.118 l 0,-17.4994 c 0,-1.7535 -0.813,-1.8222 -2.814,-1.8222 l -1.543,0 0,-2.4367 7.487,0.1394 7.364,-0.1394 -0.01,2.4367 -1.543,0 c -2.042,0 -2.947,0.0726 -2.947,1.8222 0,0 0,18.9524 0,19.3454 2.312,1.515 5.415,2.698 7.304,2.698 3.101,0 5.722,-1.229 5.722,-5.573 l 0,-16.4704 c 0,-1.7535 -0.813,-1.8222 -2.814,-1.8222 l -1.548,0 0,-2.4367 7.492,0.1394 7.358,-0.1394 -0.005,2.4367 -1.543,0 c -2.044,0 -2.947,0.0726 -2.947,1.8222 l 0,17.0368 c 0,6.5736 -3.378,9.6016 -7.947,9.6016 -4.03,0 -7.195,-2.115 -11.072,-4.625 0,0.967 0,3.925 0,3.925 0,0.823 -0.631,0.746 -0.87,0.643 -2.424,-1.052 -6.331,-2.433 -8.952,-3.209 l 0,-1.755"
       style="fill:#ffffff;fill-opacity:1;fill-rule:nonzero;stroke:none"
       id="path3373" /><path
       d="m 262.828,105.95 0,2.436 -6.513,-0.139 -5.48,0.141 -0.004,-2.406 c 1.085,0.002 1.886,-0.058 2.462,-0.179 0.831,-0.175 1.202,-0.833 1.202,-1.748 0,-0.914 -0.462,-2.492 -1.298,-4.4874 l -5.512,-12.7426 -5.647,14.167 c -1.148,2.714 -1.088,4.008 0.143,4.681 0.337,0.184 1.573,0.277 2.683,0.277 l 0,2.436 -7.749,-0.139 -7.46,0.139 -0.005,-2.436 c 2.512,0 3.491,0 5.479,-4.854 l 9.73,-23.6089 2.292,0 10.299,23.9319 c 1.209,2.819 2.233,4.531 5.378,4.531"
       style="fill:#ffffff;fill-opacity:1;fill-rule:nonzero;stroke:none"
       id="path3375" /><path
       d="m 264.964,106.571 0,-1.533 c 1.874,-0.552 3.434,-1.848 3.434,-4.409 l 0,-17.8974 c 0,-1.7535 -0.813,-1.8222 -2.811,-1.8222 l -1.612,0 0,-2.4367 7.555,0.1394 7.292,-0.1406 0,2.4379 -1.481,0 c -2.045,0 -2.947,0.0726 -2.947,1.8222 l 0,25.3574 c 0,1.313 -0.71,1.411 -1.66,0.986 -1.582,-0.712 -5.263,-1.82 -7.77,-2.504"
       style="fill:#ffffff;fill-opacity:1;fill-rule:nonzero;stroke:none"
       id="path3377" /><path
       d="m 267.805,118.686 c 0,-1.914 1.712,-3.657 3.591,-3.657 1.95,0 3.596,1.675 3.596,3.657 0,1.946 -1.612,3.529 -3.596,3.529 -1.879,0 -3.591,-1.681 -3.591,-3.529"
       style="fill:#ffffff;fill-opacity:1;fill-rule:nonzero;stroke:none"
       id="path3379" /><path
       d="m 282.635,104.024 c 2.27,-0.595 3.434,-1.478 3.434,-4.004 l 0,-17.2884 c 0,-1.7535 -0.813,-1.8222 -2.813,-1.8222 l -2.142,0 0,-2.4356 8.219,0.1383 7.302,-0.0961 2.298,-0.0433 0,2.4367 -4.053,0 c -2.003,0 -2.816,0.0687 -2.816,1.8222 l 0,15.5184 c 0,3.786 3.557,5.123 4.467,5.123 1.073,0 1.58,-0.368 2.116,-0.759 0.557,-0.405 1.133,-0.823 2.241,-0.823 1.941,0 3.462,1.636 3.462,3.723 0,2.66 -2.409,3.856 -4.12,3.856 -2.809,0 -6.211,-2.451 -8.229,-5.524 l 0,4.626 c 0,1.021 -0.736,1.113 -1.582,0.642 -1.424,-0.791 -5.499,-2.768 -7.77,-3.634 l -0.014,-1.456"
       style="fill:#ffffff;fill-opacity:1;fill-rule:nonzero;stroke:none"
       id="path3381" /><path
       d="m 312.512,93.9574 c 0,6.0606 2.648,12.6676 9.072,12.6676 6.513,0 9.235,-7.2187 9.235,-13.7234 0,-6.0629 -2.668,-12.6672 -9.141,-12.6672 -6.468,0 -9.166,7.216 -9.166,13.723 z m -6.79,-0.6578 c 0,-10.0066 6.555,-15.8125 16.02,-15.8125 8.57,0 15.862,6.3684 15.862,16.0746 0,10.1533 -6.426,15.8083 -16.084,15.8083 -8.679,0 -15.798,-6.215 -15.798,-16.0704"
       style="fill:#ffffff;fill-opacity:1;fill-rule:nonzero;stroke:none"
       id="path3383" /><path
       d="m 405.051,104.464 c -1.041,3.14 -3.531,4.906 -7.154,4.906 -4.586,0 -7.554,-2.115 -10.991,-4.563 0,0 -0.059,-0.044 -0.076,-0.055 0,0.948 0,3.337 0,3.337 0,1.157 -0.92,1.631 -2.186,0.902 -0.304,-0.173 -4.058,-1.467 -7.245,-2.42 l 0,-1.533 c 2.01,-0.592 3.434,-1.848 3.434,-4.409 l 0,-17.8974 c 0,-1.7535 -0.811,-1.8222 -2.813,-1.8222 l -1.744,0 0,-2.4395 7.688,0.1422 7.363,-0.1394 -0.007,2.4367 -1.546,0 c -2.042,0 -2.944,0.0726 -2.944,1.8222 0,0 0,18.9624 0,19.3484 1.822,1.247 5.185,3.012 7.435,3.012 3.778,0 5.39,-2.323 5.39,-7.767 l 0,-14.5934 c 0,-1.7535 -0.81,-1.8222 -2.813,-1.8222 l -1.546,0 0,-2.4367 7.49,0.1394 7.422,-0.1394 0,2.4367 -1.545,0 c -2.035,0 -3.012,0.0769 -3.012,1.8222 0,0 0,18.9624 0,19.3484 1.823,1.247 5.186,3.012 7.436,3.012 3.778,0 5.388,-2.323 5.388,-7.767 l 0,-14.5934 c 0,-1.7535 -0.814,-1.8222 -2.814,-1.8222 l -1.543,0 0,-2.4367 7.486,0.1394 7.167,-0.1406 -0.008,2.4379 -1.347,0 c -2.043,0 -2.945,0.0726 -2.945,1.8222 l 0,16.97 c 0,6.0544 -3.072,9.6684 -8.214,9.6684 -4.145,0 -8.472,-2.815 -11.206,-4.906"
       style="fill:#ffffff;fill-opacity:1;fill-rule:nonzero;stroke:none"
       id="path3385" /><path
       d="m 437.188,99.5332 c 0.868,4.3738 3.481,7.0098 7.121,7.0098 3.271,0 5.385,-2.245 5.385,-5.719 0,-0.77 -0.467,-1.2908 -1.491,-1.2908 l -11.015,0 z m 17.993,-2.8289 0.868,1.0957 c 0,8.076 -5.804,11.57 -11.478,11.57 -5.507,0 -13.696,-4.561 -13.696,-17.1286 0,-5.1035 2.71,-14.7543 12.969,-14.7543 6.001,0 9.834,4.0649 12.502,7.6047 l -1.462,1.3934 c -2.989,-2.9891 -5.662,-4.3223 -8.661,-4.3223 -4.933,0 -8.953,4.7672 -9.355,11.0914 -0.064,1.1187 -0.098,1.9223 -0.098,2.5133 0,0.4398 0.034,0.6875 0.069,0.9367 l 18.342,0"
       style="fill:#ffffff;fill-opacity:1;fill-rule:nonzero;stroke:none"
       id="path3387" /><path
       d="m 262.059,47.3523 c 2.601,-0.5937 3.827,-1.9043 3.827,-4.1152 l 0,-17.5012 c 0,-1.7507 -0.813,-1.825 -2.814,-1.825 l -1.542,0 0,-2.4328 7.489,0.1391 7.363,-0.1391 -0.008,2.4328 -1.545,0 c -2.043,0 -2.945,0.0743 -2.945,1.825 0,0 0,18.9551 0,19.3461 2.309,1.5137 5.415,2.6981 7.304,2.6981 3.098,0 5.719,-1.2293 5.719,-5.5762 l 0,-16.468 c 0,-1.7507 -0.813,-1.825 -2.811,-1.825 l -1.548,0 0,-2.4328 7.49,0.1391 7.36,-0.1391 -0.006,2.4328 -1.543,0 c -2.045,0 -2.948,0.0743 -2.948,1.825 l 0,17.0364 c 0,6.5722 -3.378,9.6035 -7.947,9.6035 -4.03,0 -7.195,-2.116 -11.07,-4.6258 0,0.9668 0,3.9234 0,3.9234 0,0.8246 -0.633,0.7473 -0.873,0.6438 -2.422,-1.0508 -6.331,-2.4336 -8.952,-3.2102 l 0,-1.7547"
       style="fill:#ffffff;fill-opacity:1;fill-rule:nonzero;stroke:none"
       id="path3389" /><path
       d="m 240.032,42.5379 c 0.868,4.3738 3.482,7.0098 7.122,7.0098 3.271,0 5.385,-2.245 5.385,-5.7168 0,-0.7715 -0.467,-1.293 -1.491,-1.293 l -11.016,0 z m 17.994,-2.827 0.868,1.093 c 0,8.0758 -5.804,11.5719 -11.478,11.5719 -5.507,0 -13.696,-4.5645 -13.696,-17.1309 0,-5.1027 2.71,-14.7508 12.969,-14.7508 6.001,0 9.833,4.0598 12.501,7.6 l -1.461,1.395 c -2.989,-2.9871 -5.662,-4.3219 -8.662,-4.3219 -4.933,0 -8.953,4.7668 -9.354,11.0918 -0.064,1.1172 -0.098,1.9242 -0.098,2.5129 0,0.439 0.034,0.6859 0.069,0.939 l 18.342,0"
       style="fill:#ffffff;fill-opacity:1;fill-rule:nonzero;stroke:none"
       id="path3391" /><path
       d="m 492.963,106.323 0.003,-1.59 4.356,0 0,-20.7478 c 0,-4.1899 2.354,-6.4981 6.629,-6.4981 3.076,0 6.033,1.5051 9.035,4.5992 l -1.478,1.5082 c -1.511,-1.3152 -2.74,-1.8269 -4.387,-1.8269 -0.892,0 -3.806,0.3734 -3.806,5.1898 l 0,17.7756 9.526,0 0,3.645 -9.526,0 0,6.654 -1.448,0 c -3.01,-4.781 -6.303,-7.156 -8.904,-8.709"
       style="fill:#ffffff;fill-opacity:1;fill-rule:nonzero;stroke:none"
       id="path3393" /><path
       d="m 176.08,56.2977 6.844,-16.2106 -13.053,0 6.209,16.2106 z m 2.129,8.7609 c -0.895,-1.2727 -3.472,-2.5481 -4.342,-2.8645 0.633,-2.1757 0.235,-3.5554 -1.049,-6.7468 -0.022,-0.0539 -9.445,-22.7832 -9.445,-22.7832 -0.653,-1.6469 -1.323,-3.3532 -2.136,-4.9352 -1.652,-3.1859 -2.641,-3.8328 -6.365,-4.0301 l 0,-2.2207 8.325,0.1231 8.437,-0.1231 -0.005,2.25 -2.425,-0.0402 c -2.431,0.0992 -3.806,0.332 -3.806,2.4633 0,1.8008 1.017,4.6289 1.832,6.9039 l 1.417,3.8969 15.6,0 3.336,-8.3379 c 0.487,-1.1332 1.065,-2.725 1.001,-3.293 -0.133,-1.1582 -1.147,-1.593 -3.41,-1.593 l -1.587,0 0,-2.25 10.353,0.1231 7.917,-0.1231 -0.005,2.25 c -1.698,0 -3.748,0.0641 -5.039,1.4778 -0.86,0.9402 -2.156,4.3082 -3.128,6.741 l -13.889,33.1117 -1.587,0"
       style="fill:#ffffff;fill-opacity:1;fill-rule:nonzero;stroke:none"
       id="path3395" /><path
       d="m 210.049,42.7773 c 0,3.452 2.025,7.1688 5.771,7.1688 4.231,0 6.13,-4.1719 6.13,-8.2961 0,-3.5609 -1.588,-7.3691 -6.048,-7.3691 -4.021,0 -5.853,3.5601 -5.853,8.4964 z M 207.74,15.632 c 0,5.8512 6.382,5.8512 10.605,5.8512 5.944,0 8.956,-1.6773 8.956,-4.9902 0,-5.9399 -8.088,-7.23987 -11.204,-7.23987 -3.855,0 -8.357,1.67067 -8.357,6.37887 z m -2.777,14.6489 c -0.529,-0.6879 -0.841,-1.8797 -0.841,-2.6309 0,-2.8941 2.557,-4.782 5.208,-5.752 -3.734,-0.8511 -7.126,-3.3929 -7.126,-7.7199 0,-4.58396 4.416,-7.74919 12.84,-7.74919 13.951,0 17.855,8.78829 17.855,12.71519 0,4.7969 -3.111,7.3438 -9.403,7.3438 -1.655,0 -6.981,-0.0047 -9.115,0.0633 -4.26,0.1488 -4.263,2.0238 -4.263,2.6859 0,1.4039 0.859,2.2059 1.724,2.9918 1.236,-0.2367 2.514,-0.3758 3.531,-0.3758 8.253,0 12.571,5.2969 12.571,10.5239 0,1.6863 -0.574,3.3035 -1.464,4.6382 1.019,-0.0386 6.285,-0.2515 6.285,-0.2515 l 0,3.9511 c -1.783,-0.2726 -3.08,-0.3828 -4.186,-0.3828 -2.463,0 -4.413,0.5606 -6.11,1.0504 -2.008,0.5785 -4.411,0.9934 -6.105,0.9934 -7.719,0 -12.707,-4.1309 -12.707,-10.5281 0,-3.8426 1.882,-6.5676 5.949,-8.8086 l -4.643,-2.7582"
       style="fill:#ffffff;fill-opacity:1;fill-rule:nonzero;stroke:none"
       id="path3397" /><path
       d="m 322.173,29.1582 c -2.647,-2.057 -4.795,-3.1652 -7.989,-3.1613 -7.833,0.0152 -10.798,5.0941 -10.821,12.6461 -0.017,5.1136 3.722,10.5531 8.403,10.5093 3.456,-0.0304 4.453,-1.4589 5.605,-3.0019 0.776,-1.0332 1.508,-2.0078 2.764,-2.018 1.835,-0.0144 2.769,1.5918 2.747,3.1848 -0.037,2.9426 -3.776,4.8469 -9.373,4.9004 -9.169,0.0898 -16.077,-7.2742 -16.077,-17.2547 0,-8.2277 5.959,-14.2809 13.401,-14.2809 5.581,0 10.024,3.3282 12.937,6.834 l -1.597,1.6422"
       style="fill:#ffffff;fill-opacity:1;fill-rule:nonzero;stroke:none"
       id="path3399" /><path
       d="m 338.23,22.8969 c -0.217,-0.5778 -1.583,-4.1239 -4.397,-10.118 -0.806,0.618 -1.518,0.8313 -2.551,0.8313 -2.018,0 -3.526,-1.9293 -3.526,-3.65903 0,-2.0082 1.543,-3.52226 3.59,-3.52226 2.082,0 3.528,1.11797 4.554,3.51718 L 350.825,44.948 c 1.193,2.7649 2.429,4.0606 5.247,4.0008 l 0,2.4485 -5.308,-0.1438 -6.521,0.1391 -0.044,-2.4356 c 0.949,0 1.706,-0.0453 2.284,-0.2101 0.96,-0.2774 1.414,-0.8953 1.414,-2.2063 0,-0.3855 -0.261,-1.2508 -0.676,-2.398 l -5.539,-13.5305 -5.45,13.6984 c -0.549,1.375 -1.041,2.6708 -0.961,3.2196 0.098,0.6828 0.513,1.048 1.307,1.2433 0.573,0.1414 1.345,0.1954 2.334,0.211 l -0.007,2.4082 -6.302,-0.1391 -8.017,0.1391 0,-2.4727 c 0.45,-0.0195 1.093,0.0196 1.562,-0.0937 1.182,-0.2871 2.132,-0.9153 2.646,-2.1321 l 9.436,-23.7972"
       style="fill:#ffffff;fill-opacity:1;fill-rule:nonzero;stroke:none"
       id="path3401" /><path
       id="path4236"
       d="m 79.4563,80.6016 c 0.1925,0.5906 0.3011,1.2222 0.3011,1.8879 0,3.2242 -2.4824,5.8339 -5.5484,5.8339 -3.0563,0 -5.5387,-2.6097 -5.5387,-5.8339 0,-3.2254 2.4824,-5.8368 5.5387,-5.8368 l 0.5344,0.0274 c -0.4254,-0.1508 -0.8758,-0.2746 -1.3407,-0.3613 -4.8855,-0.9075 -9.5492,2.5343 -10.4144,7.6792 -0.8559,5.1489 2.4082,10.0547 7.2988,10.9633 4.8863,0.9063 9.55,-2.5269 10.4102,-7.6789 0.4054,-2.4082 -0.0942,-4.7683 -1.241,-6.6808 z"
       style="fill:#ffffff;fill-opacity:1;fill-rule:nonzero;stroke:none;stroke-opacity:1" /><path
       id="path4232"
       d="m 117.886,68.0887 c 1.681,4.4 1.439,9.4961 -1.098,13.9015 -2.739,4.75 -7.521,7.5907 -12.605,8.0465 0.836,3.5211 1.137,6.7594 -0.297,10.2523 -2.492,6.061 -10.7266,8.9 -16.3297,6.666 7.6406,5.421 17.6207,4.36 21.8987,-3.411 1.31,-2.378 1.933,-5.6721 1.963,-8.485 4.015,-0.9531 7.645,-3.4977 9.871,-7.3559 3.813,-6.6054 2.22,-14.8508 -3.403,-19.6144 z"
       style="fill:#ffffff;fill-opacity:1;fill-rule:nonzero;stroke:none;stroke-opacity:1" /><path
       id="path4228"
       d="M 87.9793,9.21094 87.3391,10.8211 C 82.8336,21.873 71.7906,42.5059 71.7906,42.5059 c 0,0 -11.3441,-21.1911 -15.7207,-32.1207 L 55.4043,8.76797 C 60.352,7.54219 65.525,6.89219 70.8512,6.89219 c 5.932,0 11.6758,0.80898 17.1281,2.31875 z"
       style="fill:#0b0c0f;fill-opacity:0.94117647;fill-rule:nonzero;stroke:none" /><path
       id="path4234"
       d="m 57.1328,107.771 c -1.7109,2.694 -4.6976,4.505 -8.1297,4.563 -5.4304,0.098 -9.9054,-4.229 -9.9996,-9.653 -0.0097,-0.542 0.025,-1.068 0.0942,-1.585 3.0113,-0.773 8.0113,-4.08 8.2734,-10.7003 -2.725,3.6012 -5.168,4.7285 -9.3023,5.091 -5.8997,0.5196 -10.9536,-4.6547 -11.0477,-10.4219 -0.0445,-2.2453 0.6277,-4.3343 1.8004,-6.0535 -2.7254,-2.4254 -4.4707,-5.9418 -4.5402,-9.8797 -0.1286,-7.4628 3.7242,-12.7839 10.1625,-13.9367 3.5363,-0.6226 9.3664,0.2035 12.7539,4.0024 -3.0657,-6.4297 -8.5649,-8.9375 -14.1184,-9.0024 -9.1637,-0.1031 -16.3645,8.0676 -16.2059,17.2258 0.0891,4.9395 2.3243,9.3383 5.8059,12.3156 -1.1723,2.1594 -1.8199,4.6496 -1.7754,7.2789 0.1285,7.3305 5.5828,13.3138 12.6055,14.3378 -0.0297,0.468 -0.0446,0.941 -0.0395,1.419 0.1531,8.484 7.1457,15.243 15.627,15.092 2.7445,-0.049 5.3066,-0.811 7.5066,-2.107 2.6262,2.687 6.3059,4.323 10.3555,4.251 6.9387,-0.119 12.6207,-5.219 13.7035,-11.83 -2.6508,3.372 -6.7352,5.565 -11.3543,5.645 -4.9848,0.085 -9.4406,-2.31 -12.1754,-6.052 z"
       style="opacity:1;fill:#ffffff;fill-opacity:0.94117647;fill-rule:nonzero;stroke:none;stroke-opacity:1" /></g></svg>