<?xml version="1.0" encoding="UTF-8" standalone="no"?>
<!-- Created with Inkscape (http://www.inkscape.org/) -->

<svg
   xmlns:dc="http://purl.org/dc/elements/1.1/"
   xmlns:cc="http://creativecommons.org/ns#"
   xmlns:rdf="http://www.w3.org/1999/02/22-rdf-syntax-ns#"
   xmlns:svg="http://www.w3.org/2000/svg"
   xmlns="http://www.w3.org/2000/svg"
   xmlns:sodipodi="http://sodipodi.sourceforge.net/DTD/sodipodi-0.dtd"
   xmlns:inkscape="http://www.inkscape.org/namespaces/inkscape"
   id="svg2985"
   version="1.1"
   inkscape:version="0.91 r13725"
   width="534.35876"
   height="109.92775"
   xml:space="preserve"
   sodipodi:docname="linked-data-logo-white.svg"
   inkscape:export-filename="/home/ian/workspace/environment-agency/wims-ui/app/assets/images/linked-data-logo-white.png"
   inkscape:export-xdpi="34.386223"
   inkscape:export-ydpi="34.386223"><metadata
     id="metadata2991"><rdf:RDF><cc:Work
         rdf:about=""><dc:format>image/svg+xml</dc:format><dc:type
           rdf:resource="http://purl.org/dc/dcmitype/StillImage" /><dc:title></dc:title></cc:Work></rdf:RDF></metadata><defs
     id="defs2989" /><sodipodi:namedview
     pagecolor="#ffffff"
     bordercolor="#666666"
     borderopacity="1"
     objecttolerance="10"
     gridtolerance="10"
     guidetolerance="10"
     inkscape:pageopacity="0"
     inkscape:pageshadow="2"
     inkscape:window-width="1781"
     inkscape:window-height="970"
     id="namedview2987"
     showgrid="false"
     inkscape:zoom="1.3118541"
     inkscape:cx="206.49744"
     inkscape:cy="55.107756"
     inkscape:window-x="121"
     inkscape:window-y="27"
     inkscape:window-maximized="0"
     inkscape:current-layer="g2993"
     fit-margin-top="0"
     fit-margin-left="0"
     fit-margin-right="0"
     fit-margin-bottom="0" /><g
     id="g2993"
     inkscape:groupmode="layer"
     inkscape:label="ink_ext_XXXXXX"
     transform="matrix(1.25,0,0,-1.25,-144.07,196.55125)"><path
       inkscape:connector-curvature="0"
       id="path3007"
       style="fill:#ffffff;fill-opacity:1;fill-rule:nonzero;stroke:none"
       d="m 426.444,134.897 56.511,0 0,-41.9849 -20.868,0 0,-11.1891 -11.199,11.1891 -24.444,0 0,41.9849"
       inkscape:export-filename="/home/ian/workspace/bwq-web/src/main/webapp/lab/images/linked-data-logo-white.png"
       inkscape:export-xdpi="34.386223"
       inkscape:export-ydpi="34.386223" /><path
       inkscape:connector-curvature="0"
       id="path3009"
       style="fill:#eae8eb;fill-opacity:1;fill-rule:nonzero;stroke:none"
       d="m 542.743,84.4422 -72.329,0 0,56.4998 72.329,0 0,-56.4998"
       inkscape:export-filename="/home/ian/workspace/bwq-web/src/main/webapp/lab/images/linked-data-logo-white.png"
       inkscape:export-xdpi="34.386223"
       inkscape:export-ydpi="34.386223" /><path
       inkscape:connector-curvature="0"
       id="path3011"
       style="fill:#eae8eb;fill-opacity:1;fill-rule:nonzero;stroke:none"
       d="m 498.11218,70.1199 0,15.2422 15.256,0"
       inkscape:export-filename="/home/ian/workspace/bwq-web/src/main/webapp/lab/images/linked-data-logo-white.png"
       inkscape:export-xdpi="34.386223"
       inkscape:export-ydpi="34.386223" /><path
       inkscape:connector-curvature="0"
       id="path3013"
       style="fill:#afc421;fill-opacity:1;fill-rule:nonzero;stroke:none"
       d="m 501.31,127.538 0,-48.5982 24.291,24.2972 -24.291,24.301"
       inkscape:export-filename="/home/ian/workspace/bwq-web/src/main/webapp/lab/images/linked-data-logo-white.png"
       inkscape:export-xdpi="34.386223"
       inkscape:export-ydpi="34.386223" /><path
       inkscape:connector-curvature="0"
       id="path3015"
       style="fill:#feffff;fill-opacity:1;fill-rule:nonzero;stroke:none"
       d="m 462.087,81.723 -11.199,11.1891 -24.444,0 0,41.9849 43.97,0 0,-41.9849 -8.327,0 0,-11.1891"
       inkscape:export-filename="/home/ian/workspace/bwq-web/src/main/webapp/lab/images/linked-data-logo-white.png"
       inkscape:export-xdpi="34.386223"
       inkscape:export-ydpi="34.386223" /><path
       inkscape:connector-curvature="0"
       id="path3017"
       style="fill:#feffff;fill-opacity:1;fill-rule:nonzero;stroke:none"
       d="m 470.414,92.9121 12.541,0 0,41.9848 -12.541,0 0,-41.9848 z"
       inkscape:export-filename="/home/ian/workspace/bwq-web/src/main/webapp/lab/images/linked-data-logo-white.png"
       inkscape:export-xdpi="34.386223"
       inkscape:export-ydpi="34.386223" /><path
       inkscape:connector-curvature="0"
       id="path3019"
       style="fill:#afc421;fill-opacity:1;fill-rule:nonzero;stroke:none"
       d="m 456.043,99.1738 48.5242,0 0,8 -48.5242,0 0,-8 z"
       inkscape:export-filename="/home/ian/workspace/bwq-web/src/main/webapp/lab/images/linked-data-logo-white.png"
       inkscape:export-xdpi="34.386223"
       inkscape:export-ydpi="34.386223" /><path
       inkscape:connector-curvature="0"
       id="path3021"
       style="fill:#afc421;fill-opacity:1;fill-rule:nonzero;stroke:none"
       d="m 459.272,115.356 0,-24.299 -12.148,12.15 12.148,12.149"
       inkscape:export-filename="/home/ian/workspace/bwq-web/src/main/webapp/lab/images/linked-data-logo-white.png"
       inkscape:export-xdpi="34.386223"
       inkscape:export-ydpi="34.386223" /><path
       inkscape:connector-curvature="0"
       id="path3023"
       style="fill:#ffffff;fill-opacity:1;fill-rule:nonzero;stroke:none"
       d="m 142.21,94.2059 -15.968,0 c -3.502,0 -6.188,0.7203 -8.06,2.164 -1.871,1.443 -2.807,3.9591 -2.807,7.5461 l 0,30.789 6.007,0 0,-29.373 c 0,-2.078 0.493,-3.52 1.479,-4.33 0.744,-0.621 2.334,-0.929 4.769,-0.929 l 14.58,0 0,-5.8671"
       inkscape:export-filename="/home/ian/workspace/bwq-web/src/main/webapp/lab/images/linked-data-logo-white.png"
       inkscape:export-xdpi="34.386223"
       inkscape:export-ydpi="34.386223" /><path
       inkscape:connector-curvature="0"
       id="path3025"
       style="fill:#ffffff;fill-opacity:1;fill-rule:nonzero;stroke:none"
       d="m 145.235,94.2059 6.00703,0 0,40.5797 -6.00703,0 0,-40.5797 z"
       inkscape:export-filename="/home/ian/workspace/bwq-web/src/main/webapp/lab/images/linked-data-logo-white.png"
       inkscape:export-xdpi="34.386223"
       inkscape:export-ydpi="34.386223" /><path
       inkscape:connector-curvature="0"
       id="path3027"
       style="fill:#ffffff;fill-opacity:1;fill-rule:nonzero;stroke:none"
       d="m 186.321,99.0609 c 0,-1.5379 -0.413,-2.807 -1.238,-3.8039 -0.905,-1.1332 -2.123,-1.6992 -3.652,-1.6992 -1.43,0 -2.536,0.4332 -3.321,1.2953 -0.342,0.3778 -0.946,1.4699 -1.811,3.2758 l -13.976,28.5251 0,-32.5302 -5.736,0 0,34.6332 c 0,3.939 1.63,5.907 4.891,5.907 1.488,0 2.615,-0.418 3.38,-1.253 0.423,-0.459 1.046,-1.552 1.872,-3.278 l 13.855,-28.483 0,32.65 5.736,0 0,-35.2391"
       inkscape:export-filename="/home/ian/workspace/bwq-web/src/main/webapp/lab/images/linked-data-logo-white.png"
       inkscape:export-xdpi="34.386223"
       inkscape:export-ydpi="34.386223" /><path
       inkscape:connector-curvature="0"
       id="path3029"
       style="fill:#ffffff;fill-opacity:1;fill-rule:nonzero;stroke:none"
       d="m 220.399,94.2059 -7.093,0 -13.675,17.0331 c -1.228,1.482 -1.842,2.615 -1.842,3.398 0,0.701 0.594,1.807 1.781,3.319 l 13.223,16.708 7.184,0 -15.698,-19.946 16.12,-20.5121 z m -22.791,0 -6.006,0 0,40.4581 6.006,0 0,-40.4581"
       inkscape:export-filename="/home/ian/workspace/bwq-web/src/main/webapp/lab/images/linked-data-logo-white.png"
       inkscape:export-xdpi="34.386223"
       inkscape:export-ydpi="34.386223" /><path
       inkscape:connector-curvature="0"
       id="path3031"
       style="fill:#ffffff;fill-opacity:1;fill-rule:nonzero;stroke:none"
       d="m 247.121,111.481 -19.592,0 0,-6.837 c 0,-3.02 1.752,-4.531 5.253,-4.531 l 15.517,0 0,-5.9071 -17.147,0 c -2.959,0 -5.262,0.6871 -6.912,2.0632 -1.812,1.5379 -2.717,3.7079 -2.717,6.5139 l 0,22.778 c 0,2.805 0.805,5.01 2.415,6.615 1.609,1.605 3.833,2.408 6.671,2.408 l 17.69,0 0,-5.908 -15.576,0 c -3.463,0 -5.194,-1.483 -5.194,-4.45 l 0,-6.919 19.592,0 0,-5.826"
       inkscape:export-filename="/home/ian/workspace/bwq-web/src/main/webapp/lab/images/linked-data-logo-white.png"
       inkscape:export-xdpi="34.386223"
       inkscape:export-ydpi="34.386223" /><path
       inkscape:connector-curvature="0"
       id="path3033"
       style="fill:#ffffff;fill-opacity:1;fill-rule:nonzero;stroke:none"
       d="m 277.051,105.413 0,18.611 c 0,3.236 -1.65,4.855 -4.949,4.855 l -12.981,0 0,-28.806 12.981,0 c 3.299,0 4.949,1.779 4.949,5.34 z m 5.918,-1.942 c 0,-2.832 -0.771,-5.0851 -2.311,-6.7581 -1.539,-1.6719 -3.738,-2.507 -6.595,-2.507 l -20.95,0 0,40.4991 20.829,0 c 6.017,0 9.027,-3.021 9.027,-9.063 l 0,-22.171"
       inkscape:export-filename="/home/ian/workspace/bwq-web/src/main/webapp/lab/images/linked-data-logo-white.png"
       inkscape:export-xdpi="34.386223"
       inkscape:export-ydpi="34.386223" /><path
       inkscape:connector-curvature="0"
       id="path3035"
       style="fill:#ffffff;fill-opacity:1;fill-rule:nonzero;stroke:none"
       d="m 312.297,106.026 0,17.969 c 0,3.125 -1.594,4.687 -4.78,4.687 l -12.533,0 0,-27.812 12.533,0 c 3.186,0 4.78,1.718 4.78,5.156 z m 5.712,-1.875 c 0,-2.735 -0.743,-4.9088 -2.23,-6.524 -1.486,-1.6149 -3.609,-2.4211 -6.368,-2.4211 l -20.226,0 0,39.1011 20.11,0 c 5.809,0 8.714,-2.917 8.714,-8.75 l 0,-21.406"
       inkscape:export-filename="/home/ian/workspace/bwq-web/src/main/webapp/lab/images/linked-data-logo-white.png"
       inkscape:export-xdpi="34.386223"
       inkscape:export-ydpi="34.386223" /><path
       inkscape:connector-curvature="0"
       id="path3037"
       style="fill:#ffffff;fill-opacity:1;fill-rule:nonzero;stroke:none"
       d="m 312.297,106.026 0.5,0 0,17.969 c 0.002,1.64 -0.423,2.968 -1.345,3.872 -0.922,0.904 -2.267,1.317 -3.935,1.315 l -13.033,0 0,-28.812 13.033,0 c 1.676,-0.004 3.036,0.46 3.951,1.449 0.914,0.988 1.329,2.417 1.329,4.207 l -1,0 c -0.001,-1.647 -0.382,-2.797 -1.062,-3.527 -0.678,-0.73 -1.708,-1.126 -3.218,-1.129 l -12.033,0 0,26.812 12.033,0 c 1.517,-10e-4 2.563,-0.37 3.235,-1.029 0.671,-0.658 1.043,-1.674 1.045,-3.158 l 0,-17.969 0.5,0 z m 5.712,-1.875 -0.5,0 c -0.003,-2.648 -0.711,-4.6772 -2.098,-6.185 -1.379,-1.4941 -3.333,-2.2558 -6,-2.2601 l -19.726,0 0,38.1011 19.61,0 c 2.827,-0.002 4.852,-0.706 6.181,-2.04 1.329,-1.334 2.031,-3.37 2.033,-6.21 l 0,-21.406 1,0 0,21.406 c 10e-4,2.993 -0.749,5.332 -2.325,6.915 -1.576,1.583 -3.908,2.337 -6.889,2.335 l -20.61,0 0,-40.1011 20.726,0 c 2.851,-0.0047 5.143,0.8461 6.736,2.5832 1.587,1.7199 2.365,4.0409 2.362,6.8619 l -0.5,0"
       inkscape:export-filename="/home/ian/workspace/bwq-web/src/main/webapp/lab/images/linked-data-logo-white.png"
       inkscape:export-xdpi="34.386223"
       inkscape:export-ydpi="34.386223" /><path
       inkscape:connector-curvature="0"
       id="path3039"
       style="fill:#ffffff;fill-opacity:1;fill-rule:nonzero;stroke:none"
       d="m 318.01,125.558 c 0,5.833 -2.906,8.75 -8.714,8.75 l -20.11,0 0,-39.1021 20.226,0 c 2.759,0 4.882,0.807 6.369,2.4211 1.486,1.616 2.229,3.789 2.229,6.525 l 0,21.406 z m -10.492,-24.688 -12.532,0 0,27.813 12.532,0 c 3.185,0 4.779,-1.562 4.779,-4.688 l 0,-17.968 c 0,-3.439 -1.594,-5.157 -4.779,-5.157"
       inkscape:export-filename="/home/ian/workspace/bwq-web/src/main/webapp/lab/images/linked-data-logo-white.png"
       inkscape:export-xdpi="34.386223"
       inkscape:export-ydpi="34.386223" /><path
       inkscape:connector-curvature="0"
       id="path3041"
       style="fill:#ffffff;fill-opacity:1;fill-rule:nonzero;stroke:none"
       d="m 318.01,125.558 1,0 c -10e-4,1.541 -0.191,2.923 -0.596,4.143 -0.6,1.829 -1.723,3.294 -3.292,4.233 -1.568,0.943 -3.526,1.374 -5.826,1.374 l -21.11,0 0,-41.1021 21.226,0 c 1.476,0 2.82,0.2152 4.017,0.6703 1.196,0.4539 2.24,1.1519 3.088,2.0738 l 0,0.0012 c 1.686,1.8258 2.499,4.2918 2.493,7.2008 l 0,21.406 -2,0 0,-21.406 c -0.006,-2.562 -0.679,-4.4442 -1.965,-5.8481 l 10e-4,0.0012 c -0.64,-0.693 -1.401,-1.2051 -2.328,-1.559 -0.926,-0.3531 -2.023,-0.5402 -3.306,-0.5402 l -19.226,0 0,37.1021 19.11,0 c 1.369,0.001 2.533,-0.173 3.494,-0.495 1.444,-0.49 2.436,-1.277 3.136,-2.436 0.695,-1.161 1.084,-2.752 1.084,-4.819 l 1,0 z m -10.492,-24.688 0,1 -11.532,0 0,25.813 11.532,0 c 0.715,10e-4 1.308,-0.088 1.78,-0.243 0.709,-0.239 1.147,-0.586 1.474,-1.11 0.322,-0.525 0.525,-1.286 0.525,-2.335 l 0,-17.968 c 0,-0.783 -0.092,-1.437 -0.254,-1.961 -0.25,-0.79 -0.621,-1.279 -1.157,-1.632 -0.537,-0.349 -1.304,-0.564 -2.368,-0.564 l 0,-2.0001 c 0.885,0 1.697,0.118 2.429,0.3811 1.097,0.387 1.998,1.138 2.552,2.147 0.558,1.008 0.797,2.226 0.798,3.629 l 0,17.968 c 0,0.866 -0.11,1.658 -0.352,2.373 -0.357,1.072 -1.055,1.964 -2.008,2.518 -0.952,0.559 -2.106,0.796 -3.419,0.797 l -13.532,0 0,-29.8131 13.532,0 0,1.0001"
       inkscape:export-filename="/home/ian/workspace/bwq-web/src/main/webapp/lab/images/linked-data-logo-white.png"
       inkscape:export-xdpi="34.386223"
       inkscape:export-ydpi="34.386223" /><path
       inkscape:connector-curvature="0"
       id="path3043"
       style="fill:#ffffff;fill-opacity:1;fill-rule:nonzero;stroke:none"
       d="m 345.84,110.127 -6.324,17.383 -5.742,-17.383 12.066,0 z m 11.513,-14.9211 -6.207,0 -3.47,9.5701 -15.738,0 -3.467,-9.5701 -6.209,0 12.941,35.5071 c 0.873,2.344 2.408,3.516 4.604,3.516 2.196,0 3.73,-1.172 4.605,-3.516 l 12.941,-35.5071"
       inkscape:export-filename="/home/ian/workspace/bwq-web/src/main/webapp/lab/images/linked-data-logo-white.png"
       inkscape:export-xdpi="34.386223"
       inkscape:export-ydpi="34.386223" /><path
       inkscape:connector-curvature="0"
       id="path3045"
       style="fill:#ffffff;fill-opacity:1;fill-rule:nonzero;stroke:none"
       d="m 345.84,110.127 0.47,0.171 -6.817,18.738 -6.41,-19.409 13.471,0 -0.244,0.671 -0.47,-0.171 0,0.5 -11.374,0 5.072,15.358 5.832,-16.029 0.47,0.171 0,0.5 0,-0.5 z m 11.513,-14.9211 0,0.5 -5.857,0 -3.47,9.5701 -16.438,0 -3.468,-9.5701 -5.144,0 12.695,34.8321 0.001,10e-4 c 0.413,1.109 0.966,1.899 1.64,2.414 0.676,0.513 1.484,0.774 2.495,0.776 1.01,-0.002 1.819,-0.263 2.494,-0.776 0.675,-0.515 1.228,-1.305 1.643,-2.414 l 12.939,-35.505 0.47,0.1719 0,0.5 0,-0.5 0.469,0.1711 -12.942,35.511 10e-4,0 c -0.461,1.235 -1.112,2.202 -1.973,2.86 -0.859,0.658 -1.916,0.983 -3.101,0.981 -1.185,0.002 -2.242,-0.323 -3.101,-0.981 -0.861,-0.658 -1.512,-1.626 -1.971,-2.86 l -13.188,-36.1821 7.274,0 3.468,9.5701 15.036,0 3.47,-9.5701 7.272,0 -0.245,0.6711 -0.469,-0.1711"
       inkscape:export-filename="/home/ian/workspace/bwq-web/src/main/webapp/lab/images/linked-data-logo-white.png"
       inkscape:export-xdpi="34.386223"
       inkscape:export-ydpi="34.386223" /><path
       inkscape:connector-curvature="0"
       id="path3047"
       style="fill:#ffffff;fill-opacity:1;fill-rule:nonzero;stroke:none"
       d="m 380.22,128.682 -9.908,0 0,-33.4761 -5.801,0 0,33.4761 -9.85,0 0,5.703 25.559,0 0,-5.703"
       inkscape:export-filename="/home/ian/workspace/bwq-web/src/main/webapp/lab/images/linked-data-logo-white.png"
       inkscape:export-xdpi="34.386223"
       inkscape:export-ydpi="34.386223" /><path
       inkscape:connector-curvature="0"
       id="path3049"
       style="fill:#ffffff;fill-opacity:1;fill-rule:nonzero;stroke:none"
       d="m 380.22,128.682 0,0.5 -10.409,0 0,-33.4761 -4.8,0 0,33.4761 -9.85,0 0,4.703 24.559,0 0,-5.203 0.5,0 0,0.5 0,-0.5 0.5,0 0,6.203 -26.559,0 0,-6.703 9.85,0 0,-33.4761 6.801,0 0,33.4761 9.908,0 0,0.5 -0.5,0"
       inkscape:export-filename="/home/ian/workspace/bwq-web/src/main/webapp/lab/images/linked-data-logo-white.png"
       inkscape:export-xdpi="34.386223"
       inkscape:export-ydpi="34.386223" /><path
       inkscape:connector-curvature="0"
       id="path3051"
       style="fill:#ffffff;fill-opacity:1;fill-rule:nonzero;stroke:none"
       d="m 401.106,110.127 -6.324,17.383 -5.742,-17.383 12.066,0 z m 11.512,-14.9211 -6.207,0 -3.469,9.5701 -15.738,0 -3.469,-9.5701 -6.207,0 12.94,35.5071 c 0.875,2.344 2.41,3.516 4.605,3.516 2.196,0 3.731,-1.172 4.606,-3.516 l 12.939,-35.5071"
       inkscape:export-filename="/home/ian/workspace/bwq-web/src/main/webapp/lab/images/linked-data-logo-white.png"
       inkscape:export-xdpi="34.386223"
       inkscape:export-ydpi="34.386223" /><path
       inkscape:connector-curvature="0"
       id="path3053"
       style="fill:#ffffff;fill-opacity:1;fill-rule:nonzero;stroke:none"
       d="m 401.106,110.127 0.47,0.171 -6.817,18.737 -6.411,-19.408 13.472,0 -0.244,0.671 -0.47,-0.171 0,0.5 -11.374,0 5.073,15.358 5.832,-16.029 0.469,0.171 0,0.5 0,-0.5 z m 11.512,-14.9211 0,0.5 -5.856,0 -3.469,9.5701 -16.44,0 -3.468,-9.5701 -5.142,0 12.693,34.8331 0,0 c 0.415,1.109 0.968,1.899 1.643,2.414 0.675,0.513 1.484,0.774 2.494,0.776 1.011,-0.002 1.819,-0.263 2.495,-0.776 0.674,-0.515 1.228,-1.305 1.642,-2.414 l 12.938,-35.505 0.47,0.1719 0,0.5 0,-0.5 0.47,0.1711 -12.941,35.511 0,0 c -0.46,1.235 -1.112,2.202 -1.973,2.86 -0.859,0.658 -1.916,0.983 -3.101,0.981 -1.185,0.002 -2.242,-0.323 -3.101,-0.981 -0.861,-0.658 -1.512,-1.625 -1.973,-2.86 l -13.185,-36.1821 7.272,0 3.469,9.5701 15.037,0 3.468,-9.5701 7.273,0 -0.245,0.6711 -0.47,-0.1711"
       inkscape:export-filename="/home/ian/workspace/bwq-web/src/main/webapp/lab/images/linked-data-logo-white.png"
       inkscape:export-xdpi="34.386223"
       inkscape:export-ydpi="34.386223" /><path
       inkscape:connector-curvature="0"
       id="path3055"
       style="fill:#ffffff;fill-opacity:1;fill-rule:nonzero;stroke:none"
       d="m 344.413,130.714 c -0.874,2.344 -2.409,3.517 -4.604,3.517 -2.197,0 -3.731,-1.173 -4.606,-3.517 l -12.939,-35.507 6.207,0 3.468,9.569 15.739,0 3.468,-9.569 6.207,0 -12.94,35.507 z m -10.638,-20.586 5.743,17.383 6.324,-17.383 -12.067,0"
       inkscape:export-filename="/home/ian/workspace/bwq-web/src/main/webapp/lab/images/linked-data-logo-white.png"
       inkscape:export-xdpi="34.386223"
       inkscape:export-ydpi="34.386223" /><path
       inkscape:connector-curvature="0"
       id="path3057"
       style="fill:#ffffff;fill-opacity:1;fill-rule:nonzero;stroke:none"
       d="m 344.413,130.714 0.937,0.35 c -0.483,1.297 -1.183,2.354 -2.137,3.082 -0.951,0.731 -2.132,1.089 -3.404,1.085 -1.273,0.004 -2.454,-0.354 -3.406,-1.085 -0.953,-0.728 -1.653,-1.785 -2.137,-3.082 l -0.001,-0.003 -13.43,-36.854 8.337,0 3.469,9.569 14.335,0 3.468,-9.569 8.337,0 -13.43,36.854 -10e-4,0.003 -0.937,-0.35 -0.939,-0.342 12.45,-34.165 -4.077,0 -3.468,9.569 -17.141,0 -3.469,-9.569 -4.077,0 12.449,34.161 -0.001,-0.004 c 0.392,1.047 0.896,1.749 1.477,2.193 0.584,0.441 1.268,0.67 2.192,0.674 0.922,-0.004 1.607,-0.233 2.19,-0.674 0.581,-0.444 1.086,-1.145 1.477,-2.192 l -10e-4,0.004 -0.001,0.003 0.939,0.342 z m -10.638,-20.586 0.95,-0.313 4.838,14.646 4.851,-13.333 -10.639,0 0,-1 0.95,-0.313 -0.95,0.313 0,-1 13.495,0 -7.798,21.433 -7.08,-21.433 1.383,0 0,1"
       inkscape:export-filename="/home/ian/workspace/bwq-web/src/main/webapp/lab/images/linked-data-logo-white.png"
       inkscape:export-xdpi="34.386223"
       inkscape:export-ydpi="34.386223" /><path
       inkscape:connector-curvature="0"
       id="path3059"
       style="fill:#ffffff;fill-opacity:1;fill-rule:nonzero;stroke:none"
       d="m 380.173,134.386 -25.56,0 0,-5.703 9.851,0 0,-33.4771 5.801,0 0,33.4771 9.908,0 0,5.703"
       inkscape:export-filename="/home/ian/workspace/bwq-web/src/main/webapp/lab/images/linked-data-logo-white.png"
       inkscape:export-xdpi="34.386223"
       inkscape:export-ydpi="34.386223" /><path
       inkscape:connector-curvature="0"
       id="path3061"
       style="fill:#ffffff;fill-opacity:1;fill-rule:nonzero;stroke:none"
       d="m 380.173,134.386 0,1 -26.56,0 0,-7.703 9.851,0 0,-33.4771 7.801,0 0,33.4771 9.908,0 0,7.703 -1,0 0,-1 -1,0 0,-4.703 -9.908,0 0,-33.4771 -3.801,0 0,33.4771 -9.851,0 0,3.703 24.56,0 0,1 -1,0 1,0"
       inkscape:export-filename="/home/ian/workspace/bwq-web/src/main/webapp/lab/images/linked-data-logo-white.png"
       inkscape:export-xdpi="34.386223"
       inkscape:export-ydpi="34.386223" /><path
       inkscape:connector-curvature="0"
       id="path3063"
       style="fill:#ffffff;fill-opacity:1;fill-rule:nonzero;stroke:none"
       d="m 399.585,130.714 c -0.875,2.344 -2.409,3.517 -4.605,3.517 -2.198,0 -3.732,-1.173 -4.607,-3.517 l -12.938,-35.507 6.208,0 3.466,9.569 15.74,0 3.467,-9.569 6.208,0 -12.939,35.507 z m -10.639,-20.586 5.742,17.383 6.325,-17.383 -12.067,0"
       inkscape:export-filename="/home/ian/workspace/bwq-web/src/main/webapp/lab/images/linked-data-logo-white.png"
       inkscape:export-xdpi="34.386223"
       inkscape:export-ydpi="34.386223" /><path
       inkscape:connector-curvature="0"
       id="path3065"
       style="fill:#ffffff;fill-opacity:1;fill-rule:nonzero;stroke:none"
       d="m 399.585,130.714 0.937,0.35 c -0.484,1.297 -1.184,2.354 -2.137,3.082 -0.951,0.731 -2.132,1.089 -3.405,1.085 -1.273,0.004 -2.455,-0.353 -3.406,-1.085 -0.954,-0.728 -1.654,-1.785 -2.138,-3.082 l -10e-4,-0.003 -13.429,-36.854 8.338,0 3.467,9.569 14.336,0 3.468,-9.569 8.338,0 -13.43,36.854 -0.001,0.003 -0.937,-0.35 -0.94,-0.342 12.451,-34.165 -4.078,0 -3.468,9.569 -17.142,0 -3.467,-9.569 -4.078,0 12.447,34.158 0,-0.001 c 0.391,1.047 0.896,1.749 1.477,2.193 0.584,0.441 1.269,0.67 2.193,0.674 0.923,-0.004 1.607,-0.233 2.191,-0.674 0.581,-0.444 1.086,-1.146 1.477,-2.193 l -0.001,0.004 -0.002,0.004 0.94,0.342 z m -10.639,-20.586 0.95,-0.313 4.838,14.646 4.851,-13.333 -10.639,0 0,-1 0.95,-0.313 -0.95,0.313 0,-1 13.495,0 -7.798,21.433 -7.08,-21.433 1.383,0 0,1"
       inkscape:export-filename="/home/ian/workspace/bwq-web/src/main/webapp/lab/images/linked-data-logo-white.png"
       inkscape:export-xdpi="34.386223"
       inkscape:export-ydpi="34.386223" /><path
       inkscape:connector-curvature="0"
       id="path3067"
       style="fill:#ffffff;fill-opacity:1;fill-rule:nonzero;stroke:none"
       d="m 248.139,73.4031 0,13.1457 7.295,0 -0.286,-1.7859 -4.824,0 0,-3.591 4.046,0 0,-1.8039 -4.009,0 0,-4.1039 5.263,0 0,-1.861 -7.485,0"
       inkscape:export-filename="/home/ian/workspace/bwq-web/src/main/webapp/lab/images/linked-data-logo-white.png"
       inkscape:export-xdpi="34.386223"
       inkscape:export-ydpi="34.386223" /><path
       inkscape:connector-curvature="0"
       id="path3069"
       style="fill:#ffffff;fill-opacity:1;fill-rule:nonzero;stroke:none"
       d="m 262.883,73.4031 0,6.3828 c 0,1.3102 -0.305,1.6711 -1.103,1.6711 -0.608,0 -1.481,-0.4558 -2.108,-1.082 l 0,-6.9719 -2.053,0 0,7.066 c 0,1.0079 -0.094,1.5957 -0.36,2.2797 l 1.899,0.5332 c 0.229,-0.4379 0.342,-0.8558 0.342,-1.3679 1.026,0.8738 1.92,1.3289 2.945,1.3289 1.482,0 2.508,-0.893 2.508,-2.659 l 0,-7.1809 -2.07,0"
       inkscape:export-filename="/home/ian/workspace/bwq-web/src/main/webapp/lab/images/linked-data-logo-white.png"
       inkscape:export-xdpi="34.386223"
       inkscape:export-ydpi="34.386223" /><path
       inkscape:connector-curvature="0"
       id="path3071"
       style="fill:#ffffff;fill-opacity:1;fill-rule:nonzero;stroke:none"
       d="m 271.869,73.3648 -1.843,0 -3.457,9.575 2.147,0.3032 1.672,-5.186 c 0.323,-1.007 0.589,-2.1461 0.589,-2.1461 l 0.038,0 c 0,0 0.209,1.1391 0.569,2.2223 l 1.596,4.8828 2.185,0 -3.496,-9.6512"
       inkscape:export-filename="/home/ian/workspace/bwq-web/src/main/webapp/lab/images/linked-data-logo-white.png"
       inkscape:export-xdpi="34.386223"
       inkscape:export-ydpi="34.386223" /><path
       inkscape:connector-curvature="0"
       id="path3073"
       style="fill:#ffffff;fill-opacity:1;fill-rule:nonzero;stroke:none"
       d="m 276.98,73.4031 0,9.461 2.11,0.3789 0,-9.8399 -2.11,0 z m 1.045,11.0367 c -0.759,0 -1.348,0.6274 -1.348,1.3872 0,0.7789 0.608,1.4058 1.386,1.4058 0.742,0 1.369,-0.6078 1.369,-1.4058 0,-0.7598 -0.627,-1.3872 -1.407,-1.3872"
       inkscape:export-filename="/home/ian/workspace/bwq-web/src/main/webapp/lab/images/linked-data-logo-white.png"
       inkscape:export-xdpi="34.386223"
       inkscape:export-ydpi="34.386223" /><path
       inkscape:connector-curvature="0"
       id="path3075"
       style="fill:#ffffff;fill-opacity:1;fill-rule:nonzero;stroke:none"
       d="m 286.613,81.1922 c -0.209,0.0758 -0.361,0.1328 -0.59,0.1328 -0.873,0 -1.614,-0.6469 -1.804,-1.425 l 0,-6.4969 -2.09,0 0,6.7821 c 0,1.216 -0.133,1.9949 -0.342,2.5828 l 1.92,0.4941 c 0.228,-0.4359 0.36,-0.9883 0.36,-1.5191 0.76,1.0449 1.52,1.539 2.451,1.539 0.304,0 0.494,-0.039 0.741,-0.1531 l -0.646,-1.9367"
       inkscape:export-filename="/home/ian/workspace/bwq-web/src/main/webapp/lab/images/linked-data-logo-white.png"
       inkscape:export-xdpi="34.386223"
       inkscape:export-ydpi="34.386223" /><path
       inkscape:connector-curvature="0"
       id="path3077"
       style="fill:#ffffff;fill-opacity:1;fill-rule:nonzero;stroke:none"
       d="m 292.143,81.666 c -1.33,0 -1.901,-1.0058 -1.901,-3.343 0,-2.7921 0.703,-3.6101 1.957,-3.6101 1.235,0 1.918,1.0082 1.918,3.4203 0,2.7168 -0.76,3.5328 -1.974,3.5328 z m 0.018,-8.5101 c -2.602,0 -4.236,1.957 -4.236,5.0339 0,3.0782 1.653,5.0532 4.198,5.0532 2.736,0 4.293,-2.0328 4.293,-5.0731 0,-3.0949 -1.652,-5.014 -4.255,-5.014"
       inkscape:export-filename="/home/ian/workspace/bwq-web/src/main/webapp/lab/images/linked-data-logo-white.png"
       inkscape:export-xdpi="34.386223"
       inkscape:export-ydpi="34.386223" /><path
       inkscape:connector-curvature="0"
       id="path3079"
       style="fill:#ffffff;fill-opacity:1;fill-rule:nonzero;stroke:none"
       d="m 304.055,73.4031 0,6.3828 c 0,1.3102 -0.305,1.6711 -1.102,1.6711 -0.608,0 -1.482,-0.4558 -2.109,-1.082 l 0,-6.9719 -2.051,0 0,7.066 c 0,1.0079 -0.096,1.5957 -0.361,2.2797 l 1.899,0.5332 c 0.228,-0.4379 0.342,-0.8558 0.342,-1.3679 1.026,0.8738 1.919,1.3289 2.944,1.3289 1.483,0 2.508,-0.893 2.508,-2.659 l 0,-7.1809 -2.07,0"
       inkscape:export-filename="/home/ian/workspace/bwq-web/src/main/webapp/lab/images/linked-data-logo-white.png"
       inkscape:export-xdpi="34.386223"
       inkscape:export-ydpi="34.386223" /><path
       inkscape:connector-curvature="0"
       id="path3081"
       style="fill:#ffffff;fill-opacity:1;fill-rule:nonzero;stroke:none"
       d="m 319.234,73.4031 0,6.6481 c 0,1.1207 -0.246,1.4449 -0.987,1.4449 -0.703,0 -1.368,-0.4762 -2.032,-1.102 l 0,-6.991 -1.995,0 0,6.5918 c 0,1.1211 -0.247,1.4821 -1.045,1.4821 -0.589,0 -1.273,-0.3051 -1.976,-0.95 l 0,-7.1239 -2.033,0 0,6.8957 c 0,1.1973 -0.113,1.9184 -0.342,2.4321 l 1.901,0.5312 c 0.189,-0.3043 0.302,-0.7031 0.341,-1.234 0.76,0.7789 1.653,1.2149 2.545,1.2149 0.856,0 1.596,-0.2852 2.299,-1.4059 0.932,0.9508 1.843,1.4059 2.869,1.4059 1.576,0 2.508,-0.8168 2.508,-2.811 l 0,-7.0289 -2.053,0"
       inkscape:export-filename="/home/ian/workspace/bwq-web/src/main/webapp/lab/images/linked-data-logo-white.png"
       inkscape:export-xdpi="34.386223"
       inkscape:export-ydpi="34.386223" /><path
       inkscape:connector-curvature="0"
       id="path3083"
       style="fill:#ffffff;fill-opacity:1;fill-rule:nonzero;stroke:none"
       d="m 327.899,81.666 c -1.177,0 -1.823,-0.9301 -1.823,-2.4879 l 3.552,0 c 0,1.5578 -0.684,2.4879 -1.729,2.4879 z m -1.842,-4.0269 0,-0.152 c 0,-1.3301 0.494,-2.7359 2.375,-2.7359 0.892,0 1.672,0.3238 2.392,0.9508 l 0.818,-1.2739 c -1.007,-0.8543 -2.165,-1.2722 -3.458,-1.2722 -2.716,0 -4.426,1.957 -4.426,5.0339 0,1.6911 0.361,2.8114 1.197,3.7622 0.779,0.8921 1.729,1.291 2.944,1.291 0.951,0 1.824,-0.2461 2.641,-0.9879 0.836,-0.759 1.254,-1.9371 1.254,-4.1781 l 0,-0.4379 -5.737,0"
       inkscape:export-filename="/home/ian/workspace/bwq-web/src/main/webapp/lab/images/linked-data-logo-white.png"
       inkscape:export-xdpi="34.386223"
       inkscape:export-ydpi="34.386223" /><path
       inkscape:connector-curvature="0"
       id="path3085"
       style="fill:#ffffff;fill-opacity:1;fill-rule:nonzero;stroke:none"
       d="m 339.337,73.4031 0,6.3828 c 0,1.3102 -0.304,1.6711 -1.103,1.6711 -0.607,0 -1.481,-0.4558 -2.108,-1.082 l 0,-6.9719 -2.052,0 0,7.066 c 0,1.0079 -0.095,1.5957 -0.361,2.2797 l 1.9,0.5332 c 0.229,-0.4379 0.342,-0.8558 0.342,-1.3679 1.025,0.8738 1.919,1.3289 2.945,1.3289 1.481,0 2.507,-0.893 2.507,-2.659 l 0,-7.1809 -2.07,0"
       inkscape:export-filename="/home/ian/workspace/bwq-web/src/main/webapp/lab/images/linked-data-logo-white.png"
       inkscape:export-xdpi="34.386223"
       inkscape:export-ydpi="34.386223" /><path
       inkscape:connector-curvature="0"
       id="path3087"
       style="fill:#ffffff;fill-opacity:1;fill-rule:nonzero;stroke:none"
       d="m 346.956,73.1559 c -1.862,0 -2.507,1.1023 -2.507,2.4691 l 0,5.9469 -1.064,0 0,1.4441 1.064,0 c 0,0.816 0,1.652 0.094,2.3738 l 2.146,0.5133 c -0.093,-0.7793 -0.169,-1.9383 -0.169,-2.8871 l 2.298,0 -0.55,-1.4441 -1.768,0 0,-5.3957 c 0,-1.1973 0.266,-1.5391 1.178,-1.5391 0.285,0 0.532,0.0578 0.892,0.191 l 0.267,-1.2543 c -0.627,-0.284 -1.235,-0.4179 -1.881,-0.4179"
       inkscape:export-filename="/home/ian/workspace/bwq-web/src/main/webapp/lab/images/linked-data-logo-white.png"
       inkscape:export-xdpi="34.386223"
       inkscape:export-ydpi="34.386223" /><path
       inkscape:connector-curvature="0"
       id="path3089"
       style="fill:#ffffff;fill-opacity:1;fill-rule:nonzero;stroke:none"
       d="m 358.982,84.3832 -0.018,0 c 0,0 -1.349,-4.8254 -1.653,-5.6992 l 3.23,0 c -0.133,0.2851 -1.463,5.1859 -1.559,5.6992 z m 3.117,-10.9801 -1.064,3.4571 -4.256,0 -1.064,-3.4571 -2.26,0 4.313,13.1649 2.525,0 4.199,-13.1649 -2.393,0"
       inkscape:export-filename="/home/ian/workspace/bwq-web/src/main/webapp/lab/images/linked-data-logo-white.png"
       inkscape:export-xdpi="34.386223"
       inkscape:export-ydpi="34.386223" /><path
       inkscape:connector-curvature="0"
       id="path3091"
       style="fill:#ffffff;fill-opacity:1;fill-rule:nonzero;stroke:none"
       d="m 369.262,81.666 c -1.064,0 -1.653,-0.5879 -1.653,-1.6711 0,-1.1019 0.627,-1.616 1.653,-1.616 1.083,0 1.652,0.5711 1.652,1.6352 0,1.082 -0.551,1.6519 -1.652,1.6519 z m 3.99,-0.189 c -0.399,0 -0.685,0.0761 -0.742,0.0949 0.057,-0.0578 0.627,-0.6848 0.627,-1.6719 0,-1.6719 -1.387,-2.9441 -3.647,-2.9441 -0.683,-0.2481 -1.292,-0.609 -1.292,-0.9129 0,-0.361 0.133,-0.3981 2.394,-0.3981 1.539,0 3.19,-0.7789 3.19,-2.7359 0,-2.0512 -1.709,-3.1539 -4.273,-3.1539 -2.489,0 -4.294,0.8179 -4.294,2.6219 0,0.455 0.19,1.0261 0.19,1.0261 l 1.976,0 c 0,0 -0.152,-0.3801 -0.152,-0.684 0,-0.8921 0.76,-1.3871 2.109,-1.3871 1.482,0 2.279,0.6078 2.279,1.5 0,1.045 -0.873,1.3309 -2.659,1.3309 -2.583,0 -3.153,0.5133 -3.153,1.4621 0,0.95 0.797,1.3309 1.823,1.6531 -1.444,0.418 -2.185,1.3489 -2.185,2.7168 0,1.9571 1.539,3.2481 3.838,3.2481 1.367,0 2.147,-0.4942 2.926,-0.4942 0.627,0 1.215,0.2282 1.747,0.666 l 0.969,-1.3109 c -0.531,-0.457 -1.026,-0.6269 -1.671,-0.6269"
       inkscape:export-filename="/home/ian/workspace/bwq-web/src/main/webapp/lab/images/linked-data-logo-white.png"
       inkscape:export-xdpi="34.386223"
       inkscape:export-ydpi="34.386223" /><path
       inkscape:connector-curvature="0"
       id="path3093"
       style="fill:#ffffff;fill-opacity:1;fill-rule:nonzero;stroke:none"
       d="m 379.729,81.666 c -1.177,0 -1.822,-0.9301 -1.822,-2.4879 l 3.553,0 c 0,1.5578 -0.686,2.4879 -1.731,2.4879 z m -1.841,-4.0269 0,-0.152 c 0,-1.3301 0.494,-2.7359 2.375,-2.7359 0.892,0 1.672,0.3238 2.392,0.9508 l 0.819,-1.2739 c -1.008,-0.8543 -2.166,-1.2722 -3.459,-1.2722 -2.717,0 -4.426,1.957 -4.426,5.0339 0,1.6911 0.361,2.8114 1.197,3.7622 0.779,0.8921 1.729,1.291 2.943,1.291 0.952,0 1.825,-0.2461 2.641,-0.9879 0.836,-0.759 1.254,-1.9371 1.254,-4.1781 l 0,-0.4379 -5.736,0"
       inkscape:export-filename="/home/ian/workspace/bwq-web/src/main/webapp/lab/images/linked-data-logo-white.png"
       inkscape:export-xdpi="34.386223"
       inkscape:export-ydpi="34.386223" /><path
       inkscape:connector-curvature="0"
       id="path3095"
       style="fill:#ffffff;fill-opacity:1;fill-rule:nonzero;stroke:none"
       d="m 391.169,73.4031 0,6.3828 c 0,1.3102 -0.305,1.6711 -1.104,1.6711 -0.607,0 -1.48,-0.4558 -2.107,-1.082 l 0,-6.9719 -2.053,0 0,7.066 c 0,1.0079 -0.093,1.5957 -0.359,2.2797 l 1.898,0.5332 c 0.229,-0.4379 0.342,-0.8558 0.342,-1.3679 1.027,0.8738 1.92,1.3289 2.945,1.3289 1.483,0 2.508,-0.893 2.508,-2.659 l 0,-7.1809 -2.07,0"
       inkscape:export-filename="/home/ian/workspace/bwq-web/src/main/webapp/lab/images/linked-data-logo-white.png"
       inkscape:export-xdpi="34.386223"
       inkscape:export-ydpi="34.386223" /><path
       inkscape:connector-curvature="0"
       id="path3097"
       style="fill:#ffffff;fill-opacity:1;fill-rule:nonzero;stroke:none"
       d="m 399.794,73.1559 c -2.621,0 -4.084,1.8429 -4.084,4.939 0,3.4949 2.09,5.1672 4.236,5.1672 1.045,0 1.805,-0.2461 2.66,-1.0449 l -1.044,-1.3863 c -0.571,0.5132 -1.065,0.741 -1.616,0.741 -0.664,0 -1.215,-0.343 -1.519,-0.9699 -0.285,-0.5879 -0.399,-1.4801 -0.399,-2.6782 0,-1.3097 0.209,-2.1457 0.645,-2.6207 0.305,-0.3429 0.76,-0.5519 1.273,-0.5519 0.666,0 1.311,0.3238 1.938,0.9508 l 0.988,-1.2739 c -0.873,-0.873 -1.785,-1.2722 -3.078,-1.2722"
       inkscape:export-filename="/home/ian/workspace/bwq-web/src/main/webapp/lab/images/linked-data-logo-white.png"
       inkscape:export-xdpi="34.386223"
       inkscape:export-ydpi="34.386223" /><path
       inkscape:connector-curvature="0"
       id="path3099"
       style="fill:#ffffff;fill-opacity:1;fill-rule:nonzero;stroke:none"
       d="m 409.122,73.1941 c -0.797,-2.3191 -1.48,-3.4769 -3.742,-3.8953 l -0.684,1.35 c 1.311,0.3602 2.053,0.9114 2.604,2.7543 l -0.666,0 c -0.266,1.0828 -0.627,2.1278 -0.912,2.9821 l -2.184,6.4789 2.127,0.3609 1.768,-5.8512 c 0.17,-0.5707 0.494,-2.0136 0.531,-2.1668 0.019,0.077 0.361,1.4442 0.723,2.6032 l 1.595,5.2058 2.242,0 -3.402,-9.8219"
       inkscape:export-filename="/home/ian/workspace/bwq-web/src/main/webapp/lab/images/linked-data-logo-white.png"
       inkscape:export-xdpi="34.386223"
       inkscape:export-ydpi="34.386223" /><path
       inkscape:connector-curvature="0"
       id="path3101"
       style="fill:#ffffff;fill-opacity:1;fill-rule:nonzero;stroke:none"
       d="m 123.518,151.973 0,1.686 c 0,0.953 -0.56,1.429 -1.68,1.429 l -4.479,0 0,-4.715 4.426,0 c 1.155,0 1.733,0.534 1.733,1.6 z m 2.103,-0.665 c 0,-0.944 -0.279,-1.687 -0.835,-2.23 -0.557,-0.542 -1.317,-0.814 -2.282,-0.814 l -5.145,0 0,-5.324 -2.103,0 0,14.202 7.142,0 c 0.923,0 1.673,-0.231 2.25,-0.694 0.62,-0.51 0.937,-1.208 0.951,-2.096 0.014,-0.953 0.022,-1.968 0.022,-3.044"
       inkscape:export-filename="/home/ian/workspace/bwq-web/src/main/webapp/lab/images/linked-data-logo-white.png"
       inkscape:export-xdpi="34.386223"
       inkscape:export-ydpi="34.386223" /><path
       inkscape:connector-curvature="0"
       id="path3103"
       style="fill:#ffffff;fill-opacity:1;fill-rule:nonzero;stroke:none"
       d="m 135.457,146.664 0,6.598 c 0,0.66 -0.144,1.121 -0.433,1.381 -0.289,0.26 -0.764,0.389 -1.426,0.389 l -2.208,0 c -0.677,0 -1.159,-0.129 -1.448,-0.389 -0.289,-0.26 -0.433,-0.721 -0.433,-1.381 l 0,-6.542 c 0,-0.585 0.158,-1.034 0.475,-1.345 0.261,-0.246 0.729,-0.369 1.406,-0.369 l 2.208,0 c 0.648,0 1.12,0.123 1.415,0.369 0.296,0.246 0.444,0.674 0.444,1.289 z m 2.071,-0.51 c 0,-2.144 -1.152,-3.214 -3.455,-3.214 l -3.18,0 c -1.113,0 -1.944,0.235 -2.493,0.707 -0.662,0.566 -0.993,1.392 -0.993,2.478 l 0,7.732 c 0,1.076 0.338,1.911 1.014,2.507 0.535,0.49 1.359,0.736 2.472,0.736 l 3.201,0 c 2.289,0 3.434,-1.082 3.434,-3.243 l 0,-7.703"
       inkscape:export-filename="/home/ian/workspace/bwq-web/src/main/webapp/lab/images/linked-data-logo-white.png"
       inkscape:export-xdpi="34.386223"
       inkscape:export-ydpi="34.386223" /><path
       inkscape:connector-curvature="0"
       id="path3105"
       style="fill:#ffffff;fill-opacity:1;fill-rule:nonzero;stroke:none"
       d="m 154.993,157.086 -2.906,-12.9 c -0.232,-1.001 -0.781,-1.502 -1.648,-1.502 -0.895,0 -1.44,0.496 -1.637,1.487 l -2.082,10.011 -2.007,-10.011 c -0.204,-0.991 -0.754,-1.487 -1.648,-1.487 -0.866,0 -1.416,0.501 -1.648,1.502 l -2.895,12.9 2.06,0 2.546,-11.244 2.018,9.813 c 0.211,1.057 0.743,1.586 1.596,1.586 0.866,0 1.408,-0.529 1.627,-1.586 l 2.007,-9.813 2.557,11.244 2.06,0"
       inkscape:export-filename="/home/ian/workspace/bwq-web/src/main/webapp/lab/images/linked-data-logo-white.png"
       inkscape:export-xdpi="34.386223"
       inkscape:export-ydpi="34.386223" /><path
       inkscape:connector-curvature="0"
       id="path3107"
       style="fill:#ffffff;fill-opacity:1;fill-rule:nonzero;stroke:none"
       d="m 164.914,148.986 -6.856,0 0,-2.394 c 0,-1.056 0.612,-1.586 1.838,-1.586 l 5.43,0 0,-2.066 -6.001,0 c -1.035,0 -1.842,0.24 -2.419,0.722 -0.634,0.538 -0.951,1.297 -0.951,2.28 l 0,7.972 c 0,0.981 0.282,1.752 0.845,2.315 0.564,0.56 1.342,0.842 2.335,0.842 l 6.191,0 0,-2.067 -5.451,0 c -1.212,0 -1.817,-0.519 -1.817,-1.558 l 0,-2.421 6.856,0 0,-2.039"
       inkscape:export-filename="/home/ian/workspace/bwq-web/src/main/webapp/lab/images/linked-data-logo-white.png"
       inkscape:export-xdpi="34.386223"
       inkscape:export-ydpi="34.386223" /><path
       inkscape:connector-curvature="0"
       id="path3109"
       style="fill:#ffffff;fill-opacity:1;fill-rule:nonzero;stroke:none"
       d="m 177.952,142.94 -2.62,0 -5.145,5.437 c -0.177,0.179 -0.265,0.477 -0.265,0.892 0,0.793 0.433,1.19 1.3,1.19 l 3.074,0.028 c 1.021,0 1.532,0.472 1.532,1.416 l 0,1.629 c 0,0.99 -0.578,1.486 -1.733,1.486 l -4.342,0 0,-12.078 -2.102,0 0,14.146 7.057,0 c 2.148,0 3.222,-1.006 3.222,-3.017 l 0,-2.449 c 0,-0.878 -0.278,-1.586 -0.834,-2.124 -0.556,-0.539 -1.289,-0.808 -2.198,-0.808 l -2.419,0 5.473,-5.748"
       inkscape:export-filename="/home/ian/workspace/bwq-web/src/main/webapp/lab/images/linked-data-logo-white.png"
       inkscape:export-xdpi="34.386223"
       inkscape:export-ydpi="34.386223" /><path
       inkscape:connector-curvature="0"
       id="path3111"
       style="fill:#ffffff;fill-opacity:1;fill-rule:nonzero;stroke:none"
       d="m 188.486,148.986 -6.857,0 0,-2.394 c 0,-1.056 0.613,-1.586 1.838,-1.586 l 5.431,0 0,-2.066 -6.001,0 c -1.035,0 -1.842,0.24 -2.419,0.722 -0.634,0.538 -0.951,1.297 -0.951,2.28 l 0,7.972 c 0,0.981 0.282,1.752 0.845,2.315 0.564,0.56 1.342,0.842 2.335,0.842 l 6.191,0 0,-2.067 -5.452,0 c -1.211,0 -1.817,-0.519 -1.817,-1.558 l 0,-2.421 6.857,0 0,-2.039"
       inkscape:export-filename="/home/ian/workspace/bwq-web/src/main/webapp/lab/images/linked-data-logo-white.png"
       inkscape:export-xdpi="34.386223"
       inkscape:export-ydpi="34.386223" /><path
       inkscape:connector-curvature="0"
       id="path3113"
       style="fill:#ffffff;fill-opacity:1;fill-rule:nonzero;stroke:none"
       d="m 199.622,146.862 0,6.513 c 0,1.133 -0.577,1.7 -1.733,1.7 l -4.542,0 0,-10.082 4.542,0 c 1.156,0 1.733,0.623 1.733,1.869 z m 2.071,-0.68 c 0,-0.991 -0.269,-1.779 -0.808,-2.365 -0.539,-0.585 -1.309,-0.877 -2.309,-0.877 l -7.332,0 0,14.174 7.289,0 c 2.107,0 3.16,-1.058 3.16,-3.172 l 0,-7.76"
       inkscape:export-filename="/home/ian/workspace/bwq-web/src/main/webapp/lab/images/linked-data-logo-white.png"
       inkscape:export-xdpi="34.386223"
       inkscape:export-ydpi="34.386223" /><path
       inkscape:connector-curvature="0"
       id="path3115"
       style="fill:#ffffff;fill-opacity:1;fill-rule:nonzero;stroke:none"
       d="m 217.807,152.498 0,1.061 c 0,1.01 -0.578,1.516 -1.734,1.516 l -4.405,0 0,-4.036 4.479,0 c 1.106,0 1.66,0.486 1.66,1.459 z m -0.022,-5.948 0,0.948 c 0,0.993 -0.539,1.488 -1.617,1.488 l -4.522,0 0,-3.993 4.522,0 c 1.078,0 1.617,0.519 1.617,1.557 z m 2.102,-0.368 c 0,-1.01 -0.253,-1.793 -0.76,-2.35 -0.55,-0.595 -1.328,-0.892 -2.335,-0.892 l -7.247,0 0,14.174 7.247,0 c 2.05,0 3.074,-1.073 3.074,-3.215 l 0,-1.16 c 0,-0.7 -0.081,-1.219 -0.243,-1.559 -0.184,-0.443 -0.57,-0.83 -1.162,-1.16 0.154,-0.096 0.384,-0.232 0.687,-0.411 0.38,-0.321 0.613,-0.859 0.698,-1.614 0.027,-0.208 0.041,-0.813 0.041,-1.813"
       inkscape:export-filename="/home/ian/workspace/bwq-web/src/main/webapp/lab/images/linked-data-logo-white.png"
       inkscape:export-xdpi="34.386223"
       inkscape:export-ydpi="34.386223" /><path
       inkscape:connector-curvature="0"
       id="path3117"
       style="fill:#ffffff;fill-opacity:1;fill-rule:nonzero;stroke:none"
       d="m 232.229,157.1 -4.85,-8.397 0,-5.763 -2.092,0 0,5.763 -4.828,8.397 2.398,0 3.422,-6.146 3.551,6.146 2.399,0"
       inkscape:export-filename="/home/ian/workspace/bwq-web/src/main/webapp/lab/images/linked-data-logo-white.png"
       inkscape:export-xdpi="34.386223"
       inkscape:export-ydpi="34.386223" /></g></svg>